<svg height="512" viewBox="0 0 60 60" width="512" xmlns="http://www.w3.org/2000/svg"><g id="Page-1" fill="none" fill-rule="evenodd"><g id="023---Treasure-Island" fill-rule="nonzero"><path id="Shape" d="m59 52.16v5.84c0 .5522847-.4477153 1-1 1h-56c-.55228475 0-1-.4477153-1-1v-5.84c.00311362-.3267275.16424728-.6317209.43239075-.8184282.26814346-.1867073.61009744-.2320119.91760925-.1215718.81522569.3434114 1.53311292.8826856 2.09 1.57.97 1.07 1.87 2.21 3.81 2.21 3.62 0 3.62-4 7.24-4s3.63 4 7.25 4 3.63-4 7.25-4 3.63 4 7.25 4 3.63-4 7.25-4 3.63 4 7.26 4c1.94 0 2.84-1.14 3.81-2.21.5568871-.6873144 1.2747743-1.2265886 2.09-1.57.3075118-.1104401.6494658-.0651355.9176093.1215718.2681434.1867073.4292771.4917007.4323907.8184282z" fill="#02a8f3"/><path id="Shape" d="m57.65 51.22c-.625196.2446016-1.188625.6243187-1.65 1.112v5.668c0 .5522847-.4477153 1-1 1h3c.5522847 0 1-.4477153 1-1v-5.84c-.0031136-.3267275-.1642473-.6317209-.4323907-.8184282-.2681435-.1867073-.6100975-.2320119-.9176093-.1215718z" fill="#0377bb"/><path id="Shape" d="m55.56 52.79c-.97 1.07-1.87 2.21-3.81 2.21-3.63 0-3.63-4-7.26-4s-3.62 4-7.25 4-3.62-4-7.25-4-3.62 4-7.25 4-3.62-4-7.25-4-3.62 4-7.24 4c-1.94 0-2.84-1.14-3.81-2.21 2.05-9.81 11.14-17.43 22.45-18.62-.1464774.9950277-.3535288 1.9801913-.62 2.95-.1570982.5128987.1219824 1.0577704.63 1.23 1.3232309.4340395 2.707406.6534819 4.1.65 1.4778642.0078334 2.9460217-.2391147 4.34-.73.401174-.1478473.6656134-.5324864.66-.96-.01-.92-.03-1.83-.08-2.71 9.99 2.05 17.77 9.2 19.64 18.19z" fill="#ffdb00"/><path id="Shape" d="m35.92 34.6c.015.263.014.543.024.811 8.508 2.753 14.94 9.321 16.616 17.379-.6132915.8092845-1.4043009 1.4668624-2.312 1.922.476032.1942596.9858735.2921492 1.5.288 1.94 0 2.84-1.14 3.81-2.21-1.868-8.99-9.648-16.14-19.638-18.19z" fill="#fdc008"/><path id="Shape" d="m36 37.31c.0056134.4275136-.258826.8121527-.66.96-1.3939783.4908853-2.8621358.7378334-4.34.73-1.392594.0034819-2.7767691-.2159605-4.1-.65-.5080176-.1722296-.7870982-.7171013-.63-1.23.2664712-.9698087.4735226-1.9549723.62-2.95 1.09-6.93.23-16.04-.27-21.27l2.38-.9 3 1.17c2.2068394 6.9490221 3.5240023 14.1497367 3.92 21.43.05.88.07 1.79.08 2.71z" fill="#9f522d"/><path id="Shape" d="m32 13.17-3-1.17-1.523.576 1.523.594c2.367 8.212 3.9 14.866 4 24.14.0056134.4275136-.258826.8121527-.66.96-.9098848.3225562-1.8542508.5380086-2.814.642 1.9616105.2292432 3.9496678.0097157 5.814-.642.401174-.1478473.6656134-.5324864.66-.96-.1-9.345-1.664-16.037-4-24.14z" fill="#783e22"/><path id="Shape" d="m44.81 17.38c.0191565.1740776-.05416.3454898-.1932747.4518716-.1391146.1063818-.3237482.1322255-.4867253.0681284l-12.13-4.73-3-1.17c1.3152856-1.9965196 3.5022938-3.24782982 5.89-3.37h.02c1.2738159-.03475568 2.5408544.19685352 3.72.68 3.4712157 1.2358574 5.8917393 4.3966381 6.18 8.07z" fill="#a3c300"/><path id="Shape" d="m38.63 9.31c-1.1791456-.48314648-2.4461841-.71475568-3.72-.68h-.02c-.384169.01621974-.7664062.06337236-1.143.141.6429087.12136868 1.2732474.30180018 1.883.539 3.3360498 1.1826491 5.7136054 4.1538187 6.136 7.668l2.364.922c.1629771.0640971.3476107.0382534.4867253-.0681284.1391147-.1063818.2124312-.277794.1932747-.4518716-.2882607-3.6733619-2.7087843-6.8341426-6.18-8.07z" fill="#8fab00"/><path id="Shape" d="m29 12-2.38.9-12.92 4.87c-.1479191.0575506-.3143768.0414524-.4485261-.0433774-.1341493-.0848297-.2200543-.2283137-.2314739-.3866226-.09-1.62.22-5.81 5.44-7.78 1.7036379-.68248955 3.5670661-.86293324 5.37-.52l.01.01c1.9907061.40757069 3.7988256 1.4412824 5.16 2.95z" fill="#a3c300"/><path id="Shape" d="m29 12c-1.3611744-1.5087176-3.1692939-2.54242931-5.16-2.95l-.01-.01-9.04-5.18c-.138121-.07581601-.2315755-.21319744-.2513621-.36951113-.0197865-.1563137.0364888-.31264826.1513621-.42048887 1.18-1.1 4.59-3.53 9.46-.8 4.85 2.73 4.85 9.73 4.85 9.73z" fill="#60a817"/><path id="Shape" d="m43.21 3.86-8.3 4.77h-.02c-2.3877062.12217018-4.5747144 1.3734804-5.89 3.37 0 0 0-7 4.85-9.73 4.87-2.73 8.28-.3 9.46.8.1148733.10784061.1711486.26417517.1513621.42048887-.0197866.15631369-.1132411.29369512-.2513621.36951113z" fill="#60a817"/><path id="Shape" d="m43.31 3.07c-1.7618117-1.66560305-4.2240069-2.36956703-6.6-1.887 1.3464596.2976547 2.5891669.94904046 3.6 1.887.1148733.10784061.1711486.26417517.1513621.42048887-.0197866.15631369-.1132411.29369512-.2513621.36951113l-8.3 4.77h-.02c-.8746759.03101569-1.7361108.2232367-2.541.567-.2038681.9213402-.320715 1.8597981-.349 2.803 1.3152856-1.9965196 3.5022938-3.24782982 5.89-3.37h.02l8.3-4.77c.138121-.07581601.2315755-.21319744.2513621-.36951113.0197865-.1563137-.0364888-.31264826-.1513621-.42048887z" fill="#549314"/><g fill="#000"><path id="Shape" d="m59.153 50.528c-.5346436-.3756539-1.2180835-.469189-1.834-.251-.4297274.15837-.8340002.3786987-1.2.654-2.432-8.365-9.777-14.931-19.238-17.131-.3907599-6.4294709-1.5184788-12.7928119-3.361-18.965l10.248 3.993c.1752544.06695.3613949.1008553.549.1.4194629-.0009867.8193496-.1775655 1.102654-.4869013.2833045-.3093358.4241414-.7231648.388346-1.1410987-.3178257-4.0529326-2.98219-7.54306203-6.808-8.918-.364-.142-.713-.247-1.058-.346l5.768-3.309c.4121973-.23646793.6879621-.65426921.7433603-1.1262382s-.1161239-.94227137-.4623603-1.2677618c-1.086-1.01-5.064-4.059-10.632-.935-2.0476991 1.22347728-3.5929508 3.13598761-4.359 5.395-.7664805-2.25855673-2.3121192-4.17039826-4.36-5.393-5.565-3.125-9.544-.075-10.632.935-.3448742.3232706-.517191.79019344-.465 1.26.056173.47493039.3330133.89556459.747 1.135l5.837 3.346c-.6881622.12367743-1.3638623.30875033-2.019.553-5.97 2.252-6.166 7.281-6.084 8.769.0457497.793672.7050233 1.4125102 1.5 1.408.1812279-.0013429.3607425-.0352136.53-.1l11.696-4.406c.459 4.839 1.095 12.728.254 18.992-10.617 1.408-19.414 8.464-22.119 17.647-.36560729-.2777014-.76989215-.500395-1.2-.661-.61416999-.2209286-1.29742698-.1292402-1.83162315.2457914s-.85253442.9865115-.85337685 1.6392086v5.837c0 1.1045695.8954305 2 2 2h56c1.1045695 0 2-.8954305 2-2v-5.838c-.0010698-.6496903-.3167202-1.258631-.847-1.634zm-24.153-13.199c-1.2857864.4482894-2.6383126.6751757-4 .671-1.2816638.0117253-2.5558306-.1966333-3.767-.616.161-.576.3-1.185.42-1.808.7244976.0912949 1.4537876.1393799 2.184.144 1.7224334-.008159 3.4374375-.2264384 5.107-.65.029.741.056 1.491.056 2.259zm-.17-4.292c-2.2298239.6193537-4.5558989.8157371-6.858.579.132-.978.232-1.988.3-3.02 2.176-.149 4.283-.36 6.29-.63.112.992.2 2.018.271 3.071zm-6.623-13.115c1.667-.1 3.15-.248 4.481-.457.234.95.465 1.965.688 3.032-1.6634409.2481228-3.339335.4040277-5.02.467-.037-1.041-.089-2.058-.149-3.042zm5.553 4.54c.205 1.12.4 2.291.562 3.519-1.887.254-3.9.458-5.947.6.04-1.2.048-2.416.03-3.619 1.7930903-.0641651 3.5810254-.2311058 5.355-.5zm4.509-14.216c2.8342127 1.0011515 4.9103072 3.4501331 5.434 6.41l-13.083-5.1c1.154-1.185 3.644-2.871 7.649-1.31zm-3.929-7.1c3.688-2.072 6.395-.814 7.753.207l-7.512 4.301c-1.520425.11373117-2.9790316.64910767-4.212 1.546.47-2.045 1.538-4.688 3.971-6.058zm-3.163 10.775.014.052c.3 1.032.642 2.223 1 3.547-1.222.185-2.588.318-4.117.406-.124-1.636-.261-3.111-.382-4.363l1.3-.492zm-15.27-10.572c1.358-1.022 4.066-2.278 7.752-.207 2.594 1.46 3.634 4.383 4.054 6.474-1.0594403-.70156798-2.2365561-1.2066269-3.475-1.491zm-1.888 13.233c.082-1.7.845-4.594 4.8-6.084 1.0464472-.40723 2.1581515-.62103233 3.281-.631 1.8324004.00962533 3.6093412.6296193 5.05 1.762zm11.643 18.772c-.106.515-.222 1.016-.355 1.493-.2958232 1.0278876.2668712 2.1070817 1.279 2.453 1.424803.4663442 2.9148224.7026409 4.414.7 1.5940898.0070324 3.1775105-.2601974 4.681-.79.8001848-.2897068 1.3294066-1.054049 1.319-1.905 0-.483-.018-.954-.031-1.427 8.875 2.252 15.622 8.643 17.495 16.638-.6189842.8981635-1.6277659 1.4489479-2.718 1.484-1.371 0-2.039-.738-2.887-1.672-.9766327-1.4554895-2.6142134-2.3287454-4.367-2.3287454s-3.3903673.8732559-4.367 2.3287454c-.846.934-1.514 1.672-2.883 1.672s-2.038-.738-2.885-1.672c-1.0105179-1.4168386-2.6264244-2.278458-4.366-2.328-1.739836.0494659-3.3559058.9115425-4.366 2.329-.847.933-1.515 1.671-2.884 1.671s-2.036-.738-2.882-1.671c-1.0096726-1.4174223-2.6254375-2.2795337-4.365-2.329-1.7395214.0496211-3.3552217.911698-4.365 2.329-.845.933-1.514 1.671-2.882 1.671-1.08542725-.0353684-2.08962971-.5838574-2.706-1.478 2.059-8.75 10.164-15.622 20.121-17.168zm32.338 22.646h-56l.011-5.838c.73997567.3387331 1.38324355.8575418 1.871 1.509 1.0097783 1.417302 2.62547856 2.2793789 4.365 2.329 1.73952144-.0496211 3.3552217-.911698 4.365-2.329.846-.933 1.514-1.671 2.882-1.671s2.037.738 2.882 1.671c1.0097783 1.417302 2.6254786 2.2793789 4.365 2.329 1.739836-.0494659 3.3559058-.9115425 4.366-2.329.846-.933 1.515-1.671 2.884-1.671s2.038.738 2.884 1.671c.9763998 1.4554973 2.6138366 2.328795 4.3665 2.328795s3.3901002-.8732977 4.3665-2.328795c.846-.933 1.514-1.671 2.883-1.671s2.04.738 2.887 1.672c.9774017 1.4550363 2.6151609 2.3278528 4.368 2.3278528s3.3905983-.8728165 4.368-2.3278528c.4906672-.6556474 1.1395476-1.1761967 1.886-1.513z"/><path id="Shape" d="m14.293 47.707c.3904999.3903819 1.0235001.3903819 1.414 0l1.293-1.293 1.293 1.293c.3923789.3789722 1.0160848.3735524 1.4018186-.0121814s.3911536-1.0094397.0121814-1.4018186l-1.293-1.293 1.293-1.293c.3789722-.3923789.3735524-1.0160848-.0121814-1.4018186s-1.0094397-.3911536-1.4018186-.0121814l-1.293 1.293-1.293-1.293c-.3923789-.3789722-1.0160848-.3735524-1.4018186.0121814s-.3911536 1.0094397-.0121814 1.4018186l1.293 1.293-1.293 1.293c-.3903819.3904999-.3903819 1.0235001 0 1.414z"/><path id="Shape" d="m42.941 44c.2850832.0005532.5568497-.1205957.747-.333.3203081-.3592693.6031071-.7502959.844-1.167.2761424-.4785547.1120547-1.0903576-.3665-1.3665s-1.0903576-.1120547-1.3665.3665c-.1705033.2977665-.3715906.5769427-.6.833-.2627198.2934617-.328702.7138085-.1685319 1.0736516.1601701.359843.5166537.5921457.9105319.5933484z"/><path id="Shape" d="m38 46h.47c.207 0 .414-.009.619-.027.5503517-.0491534.9566533-.5351483.9075-1.0855-.0491534-.5503517-.5351483-.9566533-1.0855-.9075-.146.014-.293.02-.441.02h-.47c-.5522847 0-1 .4477153-1 1s.4477153 1 1 1z"/><path id="Shape" d="m33 46h1c.5522847 0 1-.4477153 1-1s-.4477153-1-1-1h-1c-.5522847 0-1 .4477153-1 1s.4477153 1 1 1z"/><path id="Shape" d="m28 46h1c.5522847 0 1-.4477153 1-1s-.4477153-1-1-1h-1c-.5522847 0-1 .4477153-1 1s.4477153 1 1 1z"/><path id="Shape" d="m23 46h1c.5522847 0 1-.4477153 1-1s-.4477153-1-1-1h-1c-.5522847 0-1 .4477153-1 1s.4477153 1 1 1z"/></g></g></g></svg>