<svg id="Capa_1" enable-background="new 0 0 512 512" height="512" viewBox="0 0 512 512" width="512" xmlns="http://www.w3.org/2000/svg"><g><g><path d="m303.361 209.594c-39.201-40.309-103.662-40.65-143.29-1.022-13.294 13.293-22.085 29.382-26.382 46.374-1.378 5.45-6.078 9.426-11.692 9.72-28.139 1.476-55.851 12.956-77.345 34.45-46.159 46.159-46.159 120.998 0 167.157s120.998 46.159 167.157 0c21.494-21.494 32.974-49.206 34.45-77.345.294-5.603 4.251-10.309 9.69-11.683 17.562-4.436 34.161-13.672 47.708-27.718 37.51-38.891 37.374-101.199-.296-139.933z" fill="#96b4eb"/><path d="m303.361 209.594c-24.148-24.831-57.88-34.488-89.489-28.985 16.689 3.145 32.625 11.266 45.401 24.403 32.008 32.912 32.123 85.855.252 118.899-11.51 11.935-25.614 19.783-40.537 23.552-4.622 1.167-7.984 5.167-8.234 9.927-1.254 23.91-11.009 47.457-29.272 65.72-39.221 39.221-102.811 39.221-142.033 0-15.863-15.863-25.307-35.712-28.339-56.324-4.769 35.305 6.407 72.352 33.542 99.487 46.159 46.159 120.998 46.159 167.157 0 21.494-21.494 32.974-49.206 34.45-77.346.294-5.603 4.251-10.31 9.69-11.683 17.563-4.436 34.161-13.672 47.708-27.717 37.51-38.891 37.373-101.199-.296-139.933z" fill="#8286ea"/><path d="m415.38 123.516-27.871-27.871-158.7 148.662 37.809 37.81z" fill="#c1e5ef"/><path d="m478.624 55.898-25.474-25.473c-9.987-9.987-26.179-9.987-36.166 0l-45.27 45.27c-9.987 9.987-9.987 26.179 0 36.166l25.473 25.473c9.987 9.987 26.179 9.987 36.166 0l45.27-45.27c9.988-9.987 9.988-26.179.001-36.166z" fill="#96b4eb"/><path d="m478.564 55.838-25.353-25.353c-10.02-10.021-26.266-10.021-36.286 0l-10.629 10.629c10.02-10.019 26.265-10.019 36.285.001l9.261 9.261c10.02 10.02 10.02 26.266 0 36.286l-23.889 23.889c-10.02 10.02-26.266 10.02-36.286 0l-9.261-9.261c-10.02-10.02-10.02-26.266 0-36.286l11.945-11.944-22.575 22.574c-10.02 10.021-10.02 26.266 0 36.287l25.353 25.353c10.02 10.02 26.266 10.02 36.286 0l45.15-45.149c10.018-10.021 10.018-26.267-.001-36.287z" fill="#8286ea"/><path d="m127.479 441.537-60.094-60.094c-4.557-4.557-4.557-11.947 0-16.504l7.293-7.293c4.558-4.558 11.947-4.558 16.505 0l60.094 60.094c4.558 4.558 4.558 11.947 0 16.505l-7.293 7.293c-4.558 4.557-11.948 4.557-16.505-.001z" fill="#f6e06e"/><ellipse cx="194.422" cy="316.077" fill="#c1e5ef" rx="41.953" ry="41.953" transform="matrix(.383 -.924 .924 .383 -171.997 374.742)"/><path d="m177.036 328.36c0-16.386 13.283-29.669 29.669-29.669 14.47 0 26.513 10.361 29.134 24.066.348-2.176.535-4.406.535-6.68 0-23.17-18.783-41.953-41.953-41.953s-41.953 18.783-41.953 41.953 18.783 41.952 41.953 41.952c2.274 0 4.504-.187 6.68-.535-13.704-2.62-24.065-14.664-24.065-29.134z" fill="#a6aaed"/><g fill="#f6e06e"><path d="m374.648 64.971-6.16 6.16c-4.323 4.324-11.333 4.324-15.656 0l-1.443-1.443c-4.323-4.324-4.323-11.333 0-15.657l6.16-6.16c4.323-4.323 11.333-4.323 15.656 0l1.443 1.443c4.323 4.324 4.323 11.334 0 15.657z"/><path d="m412.206 27.413-6.16 6.16c-4.323 4.323-11.333 4.324-15.657 0l-1.443-1.442c-4.324-4.323-4.324-11.333 0-15.657l6.16-6.16c4.323-4.323 11.333-4.323 15.656 0l1.443 1.443c4.324 4.323 4.324 11.333.001 15.656z"/><path d="m460.927 151.25-6.16 6.16c-4.324 4.323-11.333 4.323-15.656 0l-1.443-1.443c-4.323-4.323-4.323-11.333 0-15.657l6.16-6.16c4.323-4.323 11.333-4.323 15.657 0l1.443 1.443c4.322 4.324 4.322 11.334-.001 15.657z"/><path d="m502.761 110.288-6.348 6.348c-4.323 4.323-11.333 4.323-15.656 0l-1.59-1.59c-4.323-4.323-4.323-11.333 0-15.656l6.348-6.348c4.323-4.323 11.333-4.323 15.657 0l1.59 1.59c4.323 4.323 4.323 11.333-.001 15.656z"/></g><path d="m95.93 90.047 8.242 23.174c.353.992 1.051 1.778 1.933 2.176l20.59 9.276c2.909 1.311 2.909 5.945 0 7.256l-20.59 9.276c-.882.397-1.58 1.184-1.933 2.176l-8.242 23.174c-1.164 3.274-5.282 3.274-6.446 0l-8.242-23.174c-.353-.992-1.051-1.779-1.933-2.176l-20.59-9.276c-2.909-1.311-2.909-5.945 0-7.256l20.59-9.276c.882-.397 1.58-1.183 1.933-2.176l8.242-23.174c1.164-3.274 5.282-3.274 6.446 0z" fill="#c1e5ef"/><path d="m419.015 293.648 6.114 17.19c.262.736.78 1.319 1.434 1.614l15.273 6.881c2.158.972 2.158 4.41 0 5.382l-15.273 6.881c-.654.295-1.172.878-1.434 1.614l-6.114 17.19c-.864 2.429-3.918 2.429-4.782 0l-6.114-17.19c-.262-.736-.78-1.319-1.434-1.614l-15.273-6.881c-2.158-.972-2.158-4.41 0-5.382l15.273-6.881c.654-.295 1.172-.878 1.434-1.614l6.114-17.19c.864-2.428 3.918-2.428 4.782 0z" fill="#c1e5ef"/><ellipse cx="184.87" cy="48.192" fill="#96b4eb" rx="17.996" ry="17.996" transform="matrix(.16 -.987 .987 .16 107.687 222.955)"/><ellipse cx="280.28" cy="84.181" fill="#96b4eb" rx="7.763" ry="7.763" transform="matrix(.924 -.383 .383 .924 -10.88 113.666)"/></g><g><path d="m95.466 353.417c-6.91-6.912-18.158-6.913-25.071-.001l-7.239 7.239c-6.913 6.913-6.913 18.16 0 25.073l60.04 60.039v-.001c3.456 3.457 7.995 5.185 12.536 5.185 4.54-.001 9.08-1.728 12.536-5.184l7.239-7.239c6.914-6.913 6.914-18.16 0-25.073zm51.527 76.597-7.239 7.239c-2.218 2.216-5.828 2.216-8.046 0l-60.04-60.039c-2.218-2.219-2.218-5.828 0-8.046l7.239-7.239c1.109-1.108 2.566-1.663 4.023-1.663s2.914.555 4.023 1.663l60.04 60.039c2.218 2.219 2.218 5.828 0 8.046z" fill="#3c122c"/><path d="m506.991 90.35-1.538-1.538c-2.988-2.988-6.816-4.629-10.731-4.943.91-3.174 1.389-6.493 1.389-9.887 0-9.535-3.712-18.497-10.454-25.238l-25.353-25.354c-10.601-10.601-26.264-13.116-39.279-7.565-.701-3.137-2.262-6.022-4.59-8.35l-1.39-1.39c-6.678-6.679-17.545-6.678-24.221-.001l-6.108 6.108c-6.678 6.677-6.678 17.544.001 24.224l1.39 1.388c1.649 1.649 3.553 2.887 5.587 3.722l-9.094 9.094c-.834-2.033-2.072-3.937-3.72-5.585l-1.392-1.393c-6.679-6.677-17.545-6.676-24.223.001l-6.106 6.108c-6.678 6.677-6.678 17.543 0 24.221l1.39 1.39c2.402 2.402 5.347 3.926 8.443 4.6-1.812 4.317-2.766 8.993-2.766 13.817 0 5.587 1.284 10.973 3.696 15.836l-76.362 71.532c-15.159-7.766-32.027-11.948-49.573-12.07-29.839-.215-57.908 11.299-79.012 32.403-14.111 14.111-24.145 31.75-29.013 51.008-.312 1.231-1.312 2.099-2.491 2.16-31.673 1.661-61.474 14.934-83.914 37.375-24.219 24.218-37.557 56.419-37.557 90.67 0 34.252 13.338 66.454 37.558 90.674s56.421 37.558 90.674 37.558c34.251 0 66.453-13.338 90.673-37.558 22.44-22.441 35.713-52.242 37.374-83.914.062-1.179.917-2.175 2.129-2.482 19.957-5.04 38.102-15.58 52.471-30.48 19.96-20.695 30.918-48.044 30.856-77.011-.038-17.677-4.196-34.724-11.973-50.019l72.367-77.154c4.211 1.661 8.675 2.498 13.141 2.498 4.643-.001 9.284-.903 13.641-2.698.707 2.985 2.203 5.819 4.526 8.142l1.39 1.39c3.339 3.34 7.724 5.009 12.11 5.009s8.772-1.67 12.111-5.008l6.108-6.107s0 0 0-.001c6.678-6.677 6.678-17.543.002-24.22l-1.392-1.393c-1.556-1.555-3.343-2.732-5.247-3.562l12.67-12.67c.835 2.055 2.084 3.979 3.748 5.644l1.536 1.535c3.235 3.235 7.537 5.018 12.111 5.018 4.575 0 8.876-1.782 12.11-5.018l6.295-6.295c6.681-6.678 6.681-17.544.002-24.221zm-113.762-69.645 6.108-6.108c.992-.991 2.295-1.487 3.598-1.487s2.605.496 3.598 1.487l1.39 1.391c.961.961 1.49 2.238 1.49 3.597s-.529 2.636-1.49 3.597l-.001.001-6.106 6.108c-1.985 1.984-5.212 1.982-7.197-.002l-1.389-1.388c-1.985-1.984-1.985-5.213-.001-7.196zm-125.132 200.546 21.597 21.598-23.307 24.848-23.154-23.155zm29.838 12.812-21.047-21.046 24.435-22.89 19.516 19.516zm12.179-52.171 25.801-24.169 17.35 17.35-24.185 25.785zm34.591-32.403 26.048-24.401 15.168 15.168-24.417 26.032zm10.967-91.227 6.106-6.107c.993-.993 2.296-1.488 3.599-1.488s2.605.496 3.596 1.486l1.392 1.392c1.983 1.984 1.983 5.212 0 7.196l-6.108 6.107c-1.985 1.983-5.211 1.983-7.196 0l-1.39-1.39c-1.983-1.984-1.983-5.212.001-7.196zm-59.237 284.299c-11.768 12.203-26.617 20.832-42.941 24.955-9.795 2.473-16.728 10.866-17.254 20.886-1.401 26.712-12.596 51.848-31.524 70.776-20.43 20.43-47.592 31.681-76.484 31.681-28.893 0-56.055-11.251-76.484-31.681-20.43-20.429-31.681-47.591-31.681-76.484 0-28.892 11.251-56.054 31.681-76.483 18.928-18.929 44.062-30.124 70.774-31.525 10.017-.524 18.412-7.468 20.895-17.28 3.983-15.751 12.195-30.184 23.749-41.738 17.123-17.124 39.839-26.529 64.031-26.529.216 0 .435.001.651.002 11.837.083 23.292 2.433 33.902 6.815l-43.8 41.03c-1.983 1.858-3.128 4.44-3.173 7.158-.044 2.717 1.016 5.336 2.937 7.258l37.809 37.81c1.883 1.883 4.436 2.939 7.095 2.939.053 0 .107 0 .161-.001 2.716-.044 5.299-1.186 7.158-3.169l40.924-43.631c13.034 32.281 6.92 70.933-18.426 97.211zm107.787-212.382-25.353-25.353c-2.95-2.951-4.576-6.874-4.576-11.048 0-4.173 1.626-8.097 4.577-11.048l45.149-45.15c3.047-3.046 7.048-4.569 11.049-4.569 4 0 8.003 1.524 11.048 4.569l25.353 25.354h.001c2.951 2.951 4.576 6.874 4.576 11.048 0 4.173-1.625 8.097-4.577 11.048l-45.15 45.15c-6.09 6.091-16.004 6.091-22.097-.001zm52.423 16.841-6.108 6.107c-1.985 1.983-5.211 1.983-7.196 0l-1.39-1.39c-1.983-1.984-1.983-5.212.001-7.196l6.106-6.107c.992-.993 2.296-1.488 3.599-1.488s2.605.496 3.596 1.486l1.392 1.392c1.983 1.984 1.983 5.212 0 7.196zm41.834-40.962-6.296 6.295c-.961.961-2.238 1.49-3.597 1.49s-2.636-.529-3.599-1.492l-1.537-1.535c-1.983-1.984-1.983-5.213 0-7.197l6.295-6.295c.993-.992 2.295-1.487 3.598-1.487s2.605.496 3.598 1.487l1.538 1.538c1.983 1.985 1.983 5.212 0 7.196z" fill="#3c122c"/><g fill="#fff"><path d="m94.25 311.467c-4.001 0-7.782-2.409-9.338-6.357-2.032-5.155.501-10.982 5.655-13.014 2.506-.988 5.089-1.864 7.675-2.603 5.331-1.518 10.882 1.561 12.405 6.889s-1.562 10.882-6.889 12.405c-1.965.561-3.927 1.227-5.833 1.978-1.207.476-2.451.702-3.675.702z"/><path d="m48.272 355.147c-1.576 0-3.174-.372-4.665-1.157-4.903-2.581-6.786-8.648-4.204-13.552 5.811-11.04 13.01-20.754 21.396-28.872 3.983-3.853 10.333-3.751 14.188.231 3.854 3.982 3.75 10.333-.231 14.188-6.857 6.636-12.777 14.644-17.596 23.801-1.797 3.411-5.282 5.361-8.888 5.361z"/><path d="m194.428 229.922c-3.467 0-6.839-1.799-8.698-5.017-2.772-4.798-1.129-10.935 3.669-13.706 1.284-.742 2.612-1.447 3.95-2.098 4.979-2.423 10.988-.351 13.412 4.633 2.424 4.982.35 10.987-4.633 13.412-.912.444-1.818.925-2.691 1.43-1.58.912-3.307 1.346-5.009 1.346z"/><path d="m170.07 253.727c-1.895 0-3.812-.536-5.513-1.658-4.626-3.051-5.903-9.274-2.853-13.9 1.994-3.024 4.269-6.046 6.762-8.983 3.584-4.224 9.918-4.743 14.142-1.157 4.225 3.585 4.743 9.917 1.157 14.142-1.971 2.323-3.758 4.693-5.308 7.045-1.93 2.925-5.127 4.511-8.387 4.511z"/></g><path d="m194.423 364.05c-26.453 0-47.973-21.52-47.973-47.972 0-26.453 21.521-47.973 47.973-47.973s47.972 21.521 47.972 47.973c0 26.451-21.521 47.972-47.972 47.972zm0-83.906c-19.814 0-35.934 16.12-35.934 35.934s16.12 35.932 35.934 35.932 35.932-16.119 35.932-35.932c0-19.815-16.119-35.934-35.932-35.934z" fill="#3c122c"/></g></g></svg>